<?xml version="1.0" encoding="UTF-8"?>
<svg width="241px" height="98px" viewBox="0 0 241 98" version="1.1" xmlns="http://www.w3.org/2000/svg" xmlns:xlink="http://www.w3.org/1999/xlink">
    <!-- Generator: Sketch 52.6 (67491) - http://www.bohemiancoding.com/sketch -->
    <title>Group 29</title>
    <desc>Created with Sketch.</desc>
    <defs>
        <polygon id="path-1" points="0.0002 0.759 30.6382 0.759 30.6382 73.3949 0.0002 73.3949"></polygon>
        <polygon id="path-3" points="0 98.2408 240.24 98.2408 240.24 0.9998 0 0.9998"></polygon>
    </defs>
    <g id="Page-1" stroke="none" stroke-width="1" fill="none" fill-rule="evenodd">
        <g id="Group-29" transform="translate(0.000000, -1.000000)">
            <g id="Group-3" transform="translate(0.000000, 0.240800)">
                <mask id="mask-2" fill="white">
                    <use xlink:href="#path-1"></use>
                </mask>
                <g id="Clip-2"></g>
                <path d="M26.6362,69.4439 C23.9692,72.0799 20.7732,73.3949 17.0532,73.3949 C13.3282,73.3949 10.1492,72.0799 7.5132,69.4439 C4.8832,66.8119 3.5652,63.6329 3.5652,59.9109 L3.5652,31.6339 L3.5652,3.4579 L0.0002,3.4579 L0.0002,0.7589 L2.5062,0.7589 L4.8192,0.7589 C8.6072,0.7589 11.8192,2.0779 14.4512,4.7079 C17.0832,7.3469 18.4032,10.5219 18.4032,14.2469 L18.4032,42.5199 L18.4032,70.6939 C21.0992,70.3769 23.3592,69.1919 25.1882,67.1309 C27.0252,65.0789 27.9352,62.6709 27.9352,59.9109 L27.9352,59.5239 L27.9352,59.0409 L27.9352,58.6539 L27.9352,58.2709 L30.6382,58.2709 L30.6382,58.6539 L30.6382,59.0409 L30.6382,59.5239 L30.6382,59.9109 C30.6382,63.6329 29.3002,66.8119 26.6362,69.4439" id="Fill-1" fill="#EE4445" mask="url(#mask-2)"></path>
            </g>
            <path d="M53.6616,53.7301 L53.6616,43.0001 C53.6616,41.0281 52.9476,39.3421 51.5256,37.9451 C50.1036,36.5501 48.4086,35.8481 46.4306,35.8481 C44.5106,35.8481 42.8356,36.5501 41.4126,37.9451 C39.9926,39.3421 39.2816,41.0281 39.2816,43.0001 L39.2816,53.7301 L39.2816,64.4581 C39.2816,66.4351 39.9926,68.1331 41.4126,69.5531 C42.8356,70.9711 44.5106,71.6851 46.4306,71.6851 C48.4086,71.6851 50.1036,70.9711 51.5256,69.5531 C52.9476,68.1331 53.6616,66.4351 53.6616,64.4581 L53.6616,53.7301 Z M60.4876,67.7451 C56.6116,71.6741 51.9486,73.6361 46.5076,73.6361 C41.0146,73.6361 36.3456,71.6851 32.4916,67.7851 C28.6366,63.8831 26.7086,59.2141 26.7086,53.7661 C26.7086,48.3271 28.6366,43.6431 32.4916,39.7111 C36.3456,35.7901 41.0146,33.8281 46.5076,33.8281 C51.9486,33.8281 56.6116,35.7901 60.4876,39.7111 C64.3636,43.6431 66.3066,48.3271 66.3066,53.7661 C66.3066,59.1591 64.3636,63.8191 60.4876,67.7451 Z" id="Fill-4" fill="#EE4445"></path>
            <path d="M98.1972,70.3102 C94.9482,72.5292 90.7422,73.6362 85.5932,73.6362 C83.1822,73.6362 80.9302,73.2972 78.8372,72.6222 C76.7392,71.9472 74.9192,71.0312 73.3802,69.8772 C71.7912,68.6282 70.5482,67.1792 69.6572,65.5432 C68.7712,63.9042 68.3242,62.1272 68.3242,60.1982 L70.2762,60.1982 C70.2762,61.7872 70.6592,63.2812 71.4292,64.6772 C72.2012,66.0732 73.2612,67.2762 74.6112,68.2892 C75.9572,69.3492 77.4742,70.1432 79.1622,70.6722 C80.8462,71.2052 82.5552,71.5182 84.2872,71.6102 C84.5302,71.6632 84.7822,71.6852 85.0502,71.6852 L85.8072,71.6852 C86.3402,71.6852 86.8822,71.6632 87.4352,71.6102 C87.9842,71.5652 88.5062,71.5182 88.9862,71.4702 C89.4202,71.4182 89.9022,71.3222 90.4352,71.1802 C90.9642,71.0312 91.4932,70.8662 92.0212,70.6722 C93.1292,70.2432 94.1562,69.6632 95.0942,68.9372 C96.0322,68.2182 96.5022,67.3012 96.5022,66.1932 C96.5022,65.1352 95.9472,64.1812 94.8362,63.3382 C93.7292,62.4992 92.5002,61.7652 91.1552,61.1372 C90.6742,60.9432 90.2022,60.7522 89.7462,60.5592 C89.2862,60.3652 88.8642,60.1732 88.4812,59.9812 C88.0952,59.8362 87.7082,59.6782 87.3232,59.5092 C86.9352,59.3462 86.5532,59.1862 86.1702,59.0402 C85.7832,58.8942 85.3972,58.7402 85.0132,58.5752 C84.6262,58.4042 84.2412,58.2462 83.8582,58.1022 C83.1342,57.8132 82.3732,57.5132 81.5812,57.2012 C80.7852,56.8842 80.0012,56.5392 79.2362,56.1502 C76.6312,54.9952 74.2512,53.5142 72.0812,51.7092 C69.9132,49.9002 68.8282,47.5772 68.8282,44.7372 C68.8282,43.0482 69.2872,41.5332 70.2002,40.1822 C71.1172,38.8362 72.3702,37.7062 73.9632,36.7902 C75.5462,35.8292 77.4262,35.0892 79.5902,34.5842 C81.7602,34.0802 84.0722,33.8282 86.5292,33.8282 C87.0582,33.8282 87.5982,33.8502 88.1562,33.8982 C88.7062,33.9462 89.2762,34.0192 89.8512,34.1172 C91.2972,34.4052 92.7342,34.8852 94.1562,35.5622 C95.5712,36.2322 96.7902,37.0772 97.8022,38.0892 C98.2852,38.5722 98.6302,39.0892 98.8482,39.6452 C99.0622,40.1982 99.1732,40.7892 99.1732,41.4142 C99.1732,42.5672 98.7492,43.6282 97.9112,44.5932 C97.0672,45.5552 95.9472,46.0352 94.5512,46.0352 C93.1032,46.0352 91.9732,45.5442 91.1552,44.5522 C90.3322,43.5712 89.9242,42.4732 89.9242,41.2672 C89.9242,40.4482 90.1542,39.6532 90.6142,38.8832 C91.0692,38.1142 91.7742,37.5362 92.7402,37.1502 C91.6342,36.6692 90.5152,36.3332 89.3832,36.1392 C88.2522,35.9482 87.1092,35.8482 85.9502,35.8482 C85.3232,35.8482 84.7132,35.8762 84.1062,35.9202 C83.5092,35.9722 82.8902,36.0402 82.2692,36.1392 C81.8802,36.1902 81.4742,36.2822 81.0392,36.4282 C80.6052,36.5722 80.1452,36.7142 79.6662,36.8632 C78.6582,37.2952 77.7172,37.8502 76.8482,38.5222 C75.9832,39.1962 75.5462,40.0422 75.5462,41.0532 C75.5462,41.6792 75.7732,42.2532 76.2362,42.7842 C76.6902,43.3152 77.2092,43.7482 77.7892,44.0892 C77.9372,44.1822 78.0772,44.2772 78.2192,44.3742 C78.3642,44.4722 78.5102,44.5452 78.6582,44.5932 C79.9572,45.1702 81.2432,45.7352 82.5202,46.2882 C83.7942,46.8452 85.0802,47.3832 86.3842,47.9162 C87.6872,48.4432 88.9862,48.9882 90.2842,49.5392 C91.5842,50.0932 92.8882,50.6602 94.1832,51.2412 C94.2362,51.2412 94.2712,51.2512 94.2962,51.2762 C94.3222,51.3012 94.3522,51.3082 94.4062,51.3082 C96.5722,52.2742 98.5592,53.6942 100.3662,55.5732 C102.1702,57.4522 103.0742,59.6652 103.0742,62.2192 C103.0742,65.3972 101.4472,68.0992 98.1972,70.3102" id="Fill-6" fill="#EE4445"></path>
            <path d="M205.0629,63.1764 C204.4809,65.2344 203.2709,67.2144 201.4349,69.1214 C200.0379,70.5154 198.5719,71.5614 197.0359,72.2594 C195.4909,72.9564 193.9109,73.3794 192.2979,73.5284 C191.9999,73.5984 191.7299,73.6354 191.4719,73.6354 L190.6429,73.6354 C186.6079,73.6354 182.9969,72.2224 179.7989,69.3974 C176.6109,66.5734 175.0119,62.8454 175.0119,58.2214 L175.0119,49.6924 L175.0119,41.1574 L175.0119,32.6264 L175.0119,24.0914 C175.0119,23.7254 174.9959,23.3784 174.9569,23.0454 C174.9209,22.7154 174.8259,22.3714 174.6849,22.0034 C174.3879,20.7564 173.8179,19.5974 172.9759,18.5364 C172.1329,17.4694 171.0089,16.9384 169.6199,16.9384 C167.8549,16.9384 166.4229,17.7254 165.3209,19.3044 C164.2229,20.8834 163.3789,22.6294 162.7939,24.5324 C162.5019,25.6354 162.2759,26.6974 162.1279,27.7274 C161.9819,28.7544 161.9099,29.6374 161.9099,30.3694 L161.9099,52.0044 L161.9099,73.6354 L144.9539,73.6354 L144.9539,16.0554 C141.5079,16.0554 138.4469,17.3434 135.7649,19.9094 C133.0819,22.4794 131.7499,25.3404 131.7499,28.4974 L131.7499,51.0094 L131.7499,73.6354 L114.7889,73.6354 L114.7889,16.0554 L111.2709,16.0554 L111.2709,12.9744 L111.8709,12.9744 L112.4789,12.9744 C115.1899,12.9744 117.7639,13.1564 120.1859,13.5224 C122.6089,13.8934 124.9569,15.2134 127.2299,17.4904 C127.8199,18.1494 128.3699,18.8284 128.8839,19.5244 C129.3939,20.2234 129.8389,20.9764 130.2029,21.7834 C131.6729,18.8444 133.7999,16.6444 136.5919,15.1744 C139.3759,13.7084 142.3199,13.0124 145.3989,13.0864 C148.4799,13.0864 151.4139,13.7984 154.2089,15.2314 C156.9939,16.6604 159.0839,18.8444 160.4809,21.7834 C161.0679,20.3174 161.8379,18.9724 162.7939,17.7634 C163.7479,16.5504 164.9209,15.5434 166.3149,14.7334 L166.3149,14.6284 C167.5639,14.0404 168.8319,13.6194 170.1139,13.3574 C171.3969,13.1054 172.7349,12.9744 174.1319,12.9744 C176.4829,12.9744 178.7549,13.4154 180.9579,14.2944 C183.1609,15.1744 185.1059,16.4614 186.7899,18.1494 C188.4819,19.7604 189.7619,21.6684 190.6429,23.8724 C191.5279,26.0764 191.9709,28.4614 191.9709,31.0294 L191.9709,40.9384 L191.9709,50.7384 L191.9709,60.6454 L191.9709,70.5544 C195.1219,70.1854 197.7429,68.8274 199.8379,66.4774 C201.9299,64.1314 202.9779,61.3774 202.9779,58.2214 L202.9779,57.7814 L202.9779,57.2324 L202.9779,56.7924 L202.9779,56.3514 L205.9479,56.3514 C205.9479,58.8464 205.6569,61.1214 205.0629,63.1764" id="Fill-8" fill="#EE4445"></path>
            <path d="M211.9184,29.3458 C210.7604,30.5008 209.3624,31.0788 207.7234,31.0788 C206.0894,31.0788 204.7044,30.5008 203.5714,29.3458 C202.4384,28.1888 201.8714,26.7938 201.8714,25.1588 C201.8714,23.4748 202.4384,22.0518 203.5714,20.8938 C204.7044,19.7378 206.0894,19.1598 207.7234,19.1598 C209.3624,19.1598 210.7604,19.7378 211.9184,20.8938 C213.0684,22.0518 213.6474,23.4748 213.6474,25.1588 C213.6474,26.7938 213.0684,28.1888 211.9184,29.3458 M219.3214,70.6718 C217.3234,72.6508 214.9264,73.6358 212.1334,73.6358 C209.3414,73.6358 206.9554,72.6508 204.9814,70.6718 C203.0034,68.6998 202.0194,66.3138 202.0194,63.5208 L202.0194,49.6488 L202.0194,35.8478 L199.3414,35.8478 L199.3414,33.8278 L201.2224,33.8278 L202.9574,33.8278 C205.7944,33.8278 208.2064,34.8128 210.1814,36.7898 C212.1554,38.7628 213.1434,41.1718 213.1434,44.0118 L213.1434,57.7778 L213.1434,71.6098 C215.1694,71.3698 216.8634,70.4808 218.2364,68.9368 C219.6074,67.3978 220.2984,65.5898 220.2984,63.5208 L220.2984,63.2278 L220.2984,62.8688 L220.2984,62.5808 L220.2984,62.2938 L222.3174,62.2938 L222.3174,62.5808 L222.3174,62.8688 L222.3174,63.2278 L222.3174,63.5208 C222.3174,66.3138 221.3224,68.6998 219.3214,70.6718" id="Fill-10" fill="#EE4445"></path>
            <path d="M237.2456,70.672 C235.2386,72.651 232.8416,73.636 230.0536,73.636 C227.2546,73.636 224.8736,72.651 222.8956,70.672 C220.9226,68.699 219.9346,66.314 219.9346,63.521 L219.9346,42.315 L219.9346,21.182 L217.2636,21.182 L217.2636,19.16 L219.1396,19.16 L220.8736,19.16 C223.7176,19.16 226.1246,20.146 228.1016,22.122 C230.0746,24.099 231.0616,26.483 231.0616,29.276 L231.0616,50.481 L231.0616,71.61 C233.0866,71.37 234.7806,70.481 236.1526,68.937 C237.5296,67.398 238.2156,65.589 238.2156,63.521 L238.2156,63.228 L238.2156,62.869 L238.2156,62.581 L238.2156,62.294 L240.2396,62.294 L240.2396,62.581 L240.2396,62.869 L240.2396,63.228 L240.2396,63.521 C240.2396,66.314 239.2396,68.699 237.2456,70.672" id="Fill-12" fill="#EE4445"></path>
            <path d="M42.8925,96.5728 C43.0985,96.5728 43.3575,96.5568 43.6655,96.5288 C43.9735,96.4978 44.3025,96.4308 44.6525,96.3208 C45.0005,96.2118 45.3415,96.0518 45.6845,95.8448 C46.0235,95.6358 46.3315,95.3508 46.5995,94.9908 C46.8715,94.6328 47.0935,94.1828 47.2675,93.6448 C47.4405,93.1048 47.5255,92.4568 47.5255,91.6918 C47.5255,90.9488 47.4455,90.2868 47.2855,89.7018 C47.1255,89.1158 46.8605,88.6148 46.4925,88.2048 C46.1275,87.7948 45.6545,87.4828 45.0755,87.2658 C44.4965,87.0558 43.7815,86.9478 42.9325,86.9478 L39.8435,86.9478 L39.8435,96.5728 L42.8925,96.5728 Z M42.7385,85.5558 C44.8635,85.5558 46.4985,86.0438 47.6435,87.0138 C48.7885,87.9888 49.3635,89.4708 49.3635,91.4628 C49.3635,92.5048 49.2295,93.4298 48.9755,94.2378 C48.7185,95.0408 48.3195,95.7208 47.7795,96.2688 C47.2375,96.8208 46.5485,97.2388 45.7135,97.5268 C44.8765,97.8188 43.8865,97.9638 42.7385,97.9638 L38.0085,97.9638 L38.0085,85.5558 L42.7385,85.5558 Z" id="Fill-14" fill="#EE4445"></path>
            <mask id="mask-4" fill="white">
                <use xlink:href="#path-3"></use>
            </mask>
            <g id="Clip-17"></g>
            <polygon id="Fill-16" fill="#EE4445" mask="url(#mask-4)" points="53.608 97.9638 55.44 97.9638 55.44 85.5558 53.608 85.5558"></polygon>
            <path d="M67.3652,87.2501 C66.7532,86.8521 65.9722,86.6511 65.0192,86.6511 C64.6332,86.6511 64.2532,86.6871 63.8802,86.7581 C63.5062,86.8251 63.1742,86.9391 62.8882,87.1041 C62.5952,87.2661 62.3642,87.4831 62.1902,87.7541 C62.0182,88.0261 61.9282,88.3671 61.9282,88.7701 C61.9282,89.1521 62.0532,89.4661 62.3052,89.7021 C62.5592,89.9381 62.8912,90.1321 63.3112,90.2841 C63.7282,90.4321 64.2032,90.5601 64.7282,90.6561 C65.2572,90.7551 65.7932,90.8621 66.3412,90.9761 C66.8882,91.0951 67.4272,91.2291 67.9532,91.3861 C68.4812,91.5421 68.9522,91.7551 69.3712,92.0181 C69.7902,92.2881 70.1242,92.6261 70.3762,93.0311 C70.6252,93.4351 70.7552,93.9431 70.7552,94.5581 C70.7552,95.2201 70.5902,95.7791 70.2612,96.2521 C69.9322,96.7211 69.5112,97.1041 68.9962,97.3951 C68.4812,97.6941 67.9032,97.9111 67.2692,98.0421 C66.6312,98.1731 65.9952,98.2411 65.3672,98.2411 C64.5962,98.2411 63.8652,98.1531 63.1742,97.9791 C62.4872,97.8061 61.8802,97.5421 61.3602,97.1891 C60.8392,96.8381 60.4272,96.3851 60.1252,95.8351 C59.8232,95.2841 59.6722,94.6321 59.6722,93.8791 L61.4082,93.8791 C61.4082,94.4011 61.5202,94.8491 61.7492,95.2251 C61.9712,95.6041 62.2682,95.9131 62.6342,96.1601 C63.0002,96.3991 63.4282,96.5791 63.9162,96.6961 C64.4072,96.8091 64.9092,96.8661 65.4242,96.8661 C65.8362,96.8661 66.2532,96.8341 66.6702,96.7611 C67.0892,96.6961 67.4622,96.5731 67.8002,96.4081 C68.1322,96.2401 68.4042,96.0121 68.6082,95.7211 C68.8172,95.4311 68.9182,95.0641 68.9182,94.6111 C68.9182,94.1821 68.7932,93.8331 68.5412,93.5671 C68.2922,93.3001 67.9562,93.0841 67.5392,92.9151 C67.1212,92.7501 66.6482,92.6111 66.1182,92.5041 C65.5912,92.4051 65.0542,92.2971 64.5072,92.1871 C63.9622,92.0771 63.4262,91.9511 62.8952,91.8011 C62.3662,91.6601 61.8932,91.4671 61.4752,91.2291 C61.0582,90.9921 60.7212,90.6851 60.4732,90.3081 C60.2202,89.9351 60.0962,89.4611 60.0962,88.8931 C60.0962,88.2661 60.2362,87.7241 60.5192,87.2661 C60.8032,86.8111 61.1792,86.4351 61.6482,86.1401 C62.1222,85.8431 62.6562,85.6241 63.2522,85.4771 C63.8512,85.3351 64.4692,85.2611 65.0972,85.2611 C65.8042,85.2611 66.4612,85.3351 67.0672,85.4861 C67.6702,85.6371 68.2002,85.8751 68.6602,86.2001 C69.1152,86.5231 69.4762,86.9321 69.7412,87.4241 C70.0062,87.9181 70.1502,88.5021 70.1722,89.1871 L68.4362,89.1871 C68.3332,88.2961 67.9752,87.6491 67.3652,87.2501" id="Fill-18" fill="#EE4445" mask="url(#mask-4)"></path>
            <polygon id="Fill-19" fill="#EE4445" mask="url(#mask-4)" points="73.435 86.9483 73.435 85.5553 84.46 85.5553 84.46 86.9483 79.865 86.9483 79.865 97.9643 78.033 97.9643 78.033 86.9483"></polygon>
            <path d="M94.788,91.1871 C95.176,91.1281 95.513,91.0151 95.803,90.8481 C96.09,90.6791 96.323,90.4541 96.496,90.1711 C96.67,89.8871 96.758,89.5181 96.758,89.0661 C96.758,88.4411 96.566,87.9301 96.18,87.5361 C95.794,87.1421 95.168,86.9481 94.306,86.9481 L89.748,86.9481 L89.748,91.2721 L93.573,91.2721 C94,91.2721 94.402,91.2481 94.788,91.1871 Z M94.402,85.5561 C95.715,85.5561 96.741,85.8431 97.482,86.4241 C98.224,87.0051 98.593,87.7981 98.593,88.8081 C98.593,89.5601 98.403,90.2191 98.023,90.7871 C97.644,91.3541 97.035,91.7411 96.199,91.9511 L96.199,91.9861 C96.598,92.0541 96.925,92.1721 97.175,92.3311 C97.425,92.4981 97.624,92.6891 97.772,92.9151 C97.919,93.1421 98.029,93.3931 98.101,93.6731 C98.171,93.9471 98.227,94.2421 98.264,94.5401 C98.291,94.8431 98.309,95.1471 98.323,95.4611 C98.337,95.7741 98.37,96.0821 98.419,96.3811 C98.468,96.6821 98.545,96.9671 98.641,97.2431 C98.738,97.5131 98.883,97.7541 99.074,97.9641 L97.029,97.9641 C96.901,97.8361 96.814,97.6621 96.77,97.4411 C96.725,97.2221 96.693,96.9771 96.68,96.7031 C96.668,96.4311 96.659,96.1371 96.644,95.8241 C96.63,95.5131 96.592,95.2081 96.527,94.9081 C96.475,94.6041 96.411,94.3161 96.332,94.0421 C96.256,93.7731 96.134,93.5351 95.966,93.3331 C95.8,93.1301 95.583,92.9661 95.31,92.8461 C95.04,92.7251 94.68,92.6631 94.228,92.6631 L89.748,92.6631 L89.748,97.9641 L87.917,97.9641 L87.917,85.5561 L94.402,85.5561 Z" id="Fill-20" fill="#EE4445" mask="url(#mask-4)"></path>
            <polygon id="Fill-21" fill="#EE4445" mask="url(#mask-4)" points="103.15 97.9638 104.982 97.9638 104.982 85.5558 103.15 85.5558"></polygon>
            <path d="M116.4326,96.5728 C117.2436,96.5728 117.8756,96.3758 118.3316,95.9808 C118.7876,95.5898 119.0176,95.0448 119.0176,94.3478 C119.0176,93.9438 118.9356,93.6098 118.7676,93.3428 C118.5996,93.0728 118.3766,92.8638 118.0996,92.7068 C117.8246,92.5518 117.5046,92.4408 117.1426,92.3768 C116.7846,92.3128 116.4136,92.2808 116.0276,92.2808 L111.8356,92.2808 L111.8356,96.5728 L116.4326,96.5728 Z M115.5036,90.8908 C116.5456,90.8908 117.2986,90.7288 117.7526,90.3948 C118.2076,90.0668 118.4396,89.5728 118.4396,88.9108 C118.4396,88.4698 118.3616,88.1218 118.2076,87.8698 C118.0516,87.6128 117.8396,87.4168 117.5716,87.2768 C117.2986,87.1378 116.9866,87.0458 116.6336,87.0078 C116.2806,86.9678 115.9036,86.9478 115.5036,86.9478 L111.8356,86.9478 L111.8356,90.8908 L115.5036,90.8908 Z M115.0016,85.5558 C115.2966,85.5558 115.6196,85.5588 115.9596,85.5628 C116.2976,85.5718 116.6376,85.5878 116.9696,85.6178 C117.3076,85.6468 117.6186,85.6868 117.9076,85.7478 C118.1996,85.8058 118.4436,85.8908 118.6506,86.0088 C119.1036,86.2498 119.4846,86.5878 119.8006,87.0138 C120.1176,87.4448 120.2716,87.9728 120.2716,88.5978 C120.2716,89.2608 120.0956,89.8288 119.7416,90.3078 C119.3886,90.7868 118.8816,91.1448 118.2276,91.3788 L118.2276,91.4128 C119.0756,91.5738 119.7236,91.9228 120.1766,92.4568 C120.6266,92.9878 120.8506,93.6348 120.8506,94.4018 C120.8506,94.8518 120.7646,95.2928 120.5816,95.7208 C120.4036,96.1508 120.1326,96.5288 119.7816,96.8588 C119.4246,97.1898 118.9876,97.4578 118.4696,97.6618 C117.9476,97.8628 117.3446,97.9638 116.6606,97.9638 L110.0036,97.9638 L110.0036,85.5558 L115.0016,85.5558 Z" id="Fill-22" fill="#EE4445" mask="url(#mask-4)"></path>
            <path d="M134.7524,97.0514 C133.8154,97.8474 132.4744,98.2404 130.7354,98.2404 C128.9614,98.2404 127.5704,97.8624 126.5744,97.1044 C125.5784,96.3434 125.0814,95.1364 125.0814,93.4774 L125.0814,85.5554 L126.9144,85.5554 L126.9144,93.4774 C126.9144,94.5894 127.2424,95.4344 127.9004,96.0094 C128.5544,96.5824 129.5014,96.8664 130.7354,96.8664 C131.9074,96.8664 132.7994,96.5824 133.4104,96.0094 C134.0214,95.4344 134.3284,94.5894 134.3284,93.4774 L134.3284,85.5554 L136.1594,85.5554 L136.1594,93.4774 C136.1594,95.0674 135.6894,96.2574 134.7524,97.0514" id="Fill-23" fill="#EE4445" mask="url(#mask-4)"></path>
            <polygon id="Fill-24" fill="#EE4445" mask="url(#mask-4)" points="141.103 97.9638 142.936 97.9638 142.936 85.5558 141.103 85.5558"></polygon>
            <path d="M152.8383,96.5728 C153.0493,96.5728 153.3053,96.5568 153.6133,96.5288 C153.9253,96.4978 154.2513,96.4308 154.6003,96.3208 C154.9473,96.2118 155.2883,96.0518 155.6313,95.8448 C155.9723,95.6358 156.2773,95.3508 156.5493,94.9908 C156.8193,94.6328 157.0433,94.1828 157.2143,93.6448 C157.3883,93.1048 157.4773,92.4568 157.4773,91.6918 C157.4773,90.9488 157.3953,90.2868 157.2343,89.7018 C157.0753,89.1158 156.8093,88.6148 156.4423,88.2048 C156.0753,87.7948 155.6013,87.4828 155.0233,87.2658 C154.4433,87.0558 153.7303,86.9478 152.8813,86.9478 L149.7923,86.9478 L149.7923,96.5728 L152.8383,96.5728 Z M152.6893,85.5558 C154.8093,85.5558 156.4443,86.0438 157.5903,87.0138 C158.7353,87.9888 159.3093,89.4708 159.3093,91.4628 C159.3093,92.5048 159.1793,93.4298 158.9223,94.2378 C158.6663,95.0408 158.2653,95.7208 157.7253,96.2688 C157.1853,96.8208 156.4963,97.2388 155.6603,97.5268 C154.8233,97.8188 153.8323,97.9638 152.6893,97.9638 L147.9563,97.9638 L147.9563,85.5558 L152.6893,85.5558 Z" id="Fill-25" fill="#EE4445" mask="url(#mask-4)"></path>
            <path d="M164.811,93.6109 C164.992,94.2199 165.273,94.7669 165.664,95.2519 C166.049,95.7379 166.54,96.1299 167.147,96.4249 C167.752,96.7209 168.473,96.8659 169.308,96.8659 C170.146,96.8659 170.867,96.7209 171.474,96.4249 C172.079,96.1299 172.573,95.7379 172.958,95.2519 C173.344,94.7669 173.626,94.2199 173.808,93.6109 C173.993,93.0019 174.078,92.3859 174.078,91.7619 C174.078,91.1319 173.993,90.5169 173.808,89.9079 C173.626,89.3009 173.344,88.7549 172.958,88.2659 C172.573,87.7809 172.079,87.3899 171.474,87.0919 C170.867,86.7969 170.146,86.6519 169.308,86.6519 C168.473,86.6519 167.752,86.7969 167.147,87.0919 C166.54,87.3899 166.049,87.7809 165.664,88.2659 C165.273,88.7549 164.992,89.3009 164.811,89.9079 C164.631,90.5169 164.545,91.1319 164.545,91.7619 C164.545,92.3859 164.631,93.0019 164.811,93.6109 M163.121,89.3189 C163.402,88.5339 163.815,87.8449 164.368,87.2449 C164.921,86.6369 165.611,86.1559 166.431,85.7989 C167.256,85.4389 168.217,85.2609 169.308,85.2609 C170.402,85.2609 171.366,85.4389 172.187,85.7989 C173.012,86.1559 173.698,86.6369 174.251,87.2449 C174.806,87.8449 175.221,88.5339 175.499,89.3189 C175.776,90.0999 175.911,90.9119 175.911,91.7619 C175.911,92.6039 175.776,93.4179 175.499,94.1989 C175.221,94.9819 174.806,95.6769 174.251,96.2769 C173.698,96.8809 173.012,97.3569 172.187,97.7119 C171.366,98.0669 170.402,98.2409 169.308,98.2409 C168.217,98.2409 167.256,98.0669 166.431,97.7119 C165.611,97.3569 164.921,96.8809 164.368,96.2769 C163.815,95.6769 163.402,94.9819 163.121,94.1989 C162.843,93.4179 162.708,92.6039 162.708,91.7619 C162.708,90.9119 162.843,90.0999 163.121,89.3189" id="Fill-26" fill="#EE4445" mask="url(#mask-4)"></path>
            <path d="M186.9526,91.1871 C187.3436,91.1281 187.6816,91.0151 187.9686,90.8481 C188.2586,90.6791 188.4906,90.4541 188.6646,90.1711 C188.8386,89.8871 188.9276,89.5181 188.9276,89.0661 C188.9276,88.4411 188.7306,87.9301 188.3456,87.5361 C187.9616,87.1421 187.3366,86.9481 186.4736,86.9481 L181.9166,86.9481 L181.9166,91.2721 L185.7396,91.2721 C186.1646,91.2721 186.5686,91.2481 186.9526,91.1871 Z M186.5686,85.5561 C187.8856,85.5561 188.9076,85.8431 189.6476,86.4241 C190.3896,87.0051 190.7606,87.7981 190.7606,88.8081 C190.7606,89.5601 190.5716,90.2191 190.1876,90.7871 C189.8076,91.3541 189.2006,91.7411 188.3666,91.9511 L188.3666,91.9861 C188.7626,92.0541 189.0916,92.1721 189.3406,92.3311 C189.5916,92.4981 189.7906,92.6891 189.9356,92.9151 C190.0876,93.1421 190.1986,93.3931 190.2656,93.6731 C190.3396,93.9471 190.3906,94.2421 190.4316,94.5401 C190.4546,94.8431 190.4756,95.1471 190.4866,95.4611 C190.5006,95.7741 190.5326,96.0821 190.5866,96.3811 C190.6366,96.6821 190.7126,96.9671 190.8076,97.2431 C190.9036,97.5131 191.0486,97.7541 191.2396,97.9641 L189.1966,97.9641 C189.0696,97.8361 188.9806,97.6621 188.9336,97.4411 C188.8896,97.2221 188.8576,96.9771 188.8486,96.7031 C188.8346,96.4311 188.8246,96.1371 188.8076,95.8241 C188.7946,95.5131 188.7606,95.2081 188.6966,94.9081 C188.6416,94.6041 188.5786,94.3161 188.4996,94.0421 C188.4216,93.7731 188.2996,93.5351 188.1336,93.3331 C187.9676,93.1301 187.7486,92.9661 187.4776,92.8461 C187.2086,92.7251 186.8456,92.6631 186.3986,92.6631 L181.9166,92.6631 L181.9166,97.9641 L180.0836,97.9641 L180.0836,85.5561 L186.5686,85.5561 Z" id="Fill-27" fill="#EE4445" mask="url(#mask-4)"></path>
            <path d="M202.2817,92.837 L199.9877,87.049 L199.9487,87.049 L197.6117,92.837 L202.2817,92.837 Z M201.0097,85.556 L206.3977,97.964 L204.3687,97.964 L202.8647,94.228 L197.0357,94.228 L195.4877,97.964 L193.6157,97.964 L198.9847,85.556 L201.0097,85.556 Z" id="Fill-28" fill="#EE4445" mask="url(#mask-4)"></path>
        </g>
    </g>
</svg>