<?xml version="1.0" encoding="UTF-8"?>
<svg width="1008px" height="408px" viewBox="0 0 1008 408" version="1.1" xmlns="http://www.w3.org/2000/svg" xmlns:xlink="http://www.w3.org/1999/xlink">
    <!-- Generator: Sketch 52.6 (67491) - http://www.bohemiancoding.com/sketch -->
    <title>logo</title>
    <desc>Created with Sketch.</desc>
    <defs>
        <polygon id="path-1" points="0.7746 0.491 97.092 0.491 97.092 228.855 0.7746 228.855"></polygon>
        <polygon id="path-3" points="0 407.637 1007.092 407.637 1007.092 0 0 0"></polygon>
    </defs>
    <g id="Page-1" stroke="none" stroke-width="1" fill="none" fill-rule="evenodd">
        <g id="Artboard" transform="translate(-116.000000, -87.000000)">
            <g id="logo" transform="translate(116.000000, 87.000000)">
                <path d="M111.6602,287.9293 C100.4792,298.9783 87.0822,304.4913 71.4862,304.4913 C55.8722,304.4913 42.5462,298.9783 31.4942,287.9293 C20.4682,276.8963 14.9452,263.5713 14.9452,247.9673 L14.9452,129.4273 L14.9452,11.3123 L0.0002,11.3123 L0.0002,0.0003 L10.5042,0.0003 L20.2002,0.0003 C36.0832,0.0003 49.5472,5.5283 60.5792,16.5533 C71.6132,27.6173 77.1482,40.9273 77.1482,56.5423 L77.1482,175.0633 L77.1482,293.1713 C88.4482,291.8373 97.9212,286.8723 105.5902,278.2353 C113.2912,269.6303 117.1062,259.5353 117.1062,247.9673 L117.1062,246.3433 L117.1062,244.3203 L117.1062,242.6973 L117.1062,241.0893 L128.4362,241.0893 L128.4362,242.6973 L128.4362,244.3203 L128.4362,246.3433 L128.4362,247.9673 C128.4362,263.5713 122.8272,276.8963 111.6602,287.9293" id="Fill-1" fill="#FFFFFF"></path>
                <path d="M224.9507,221.0465 L224.9507,176.0675 C224.9507,167.8005 221.9577,160.7325 215.9947,154.8765 C210.0377,149.0285 202.9307,146.0845 194.6357,146.0845 C186.5897,146.0845 179.5707,149.0285 173.6017,154.8765 C167.6497,160.7325 164.6707,167.8005 164.6707,176.0675 L164.6707,221.0465 L164.6707,266.0195 C164.6707,274.3055 167.6497,281.4235 173.6017,287.3775 C179.5707,293.3195 186.5897,296.3135 194.6357,296.3135 C202.9307,296.3135 210.0377,293.3195 215.9947,287.3775 C221.9577,281.4235 224.9507,274.3055 224.9507,266.0195 L224.9507,221.0465 Z M253.5657,279.7995 C237.3157,296.2685 217.7707,304.4915 194.9607,304.4915 C171.9337,304.4915 152.3597,296.3135 136.2047,279.9635 C120.0427,263.6085 111.9657,244.0355 111.9657,221.1945 C111.9657,198.3975 120.0427,178.7595 136.2047,162.2805 C152.3597,145.8385 171.9337,137.6165 194.9607,137.6165 C217.7707,137.6165 237.3157,145.8385 253.5657,162.2805 C269.8127,178.7595 277.9577,198.3975 277.9577,221.1945 C277.9577,243.8055 269.8127,263.3405 253.5657,279.7995 Z" id="Fill-3" fill="#FFFFFF"></path>
                <path d="M411.6455,290.5514 C398.0255,299.8544 380.3945,304.4914 358.8115,304.4914 C348.7025,304.4914 339.2645,303.0724 330.4895,300.2424 C321.6965,297.4134 314.0625,293.5724 307.6115,288.7344 C300.9525,283.5004 295.7415,277.4254 292.0045,270.5694 C288.2895,263.6974 286.4175,256.2464 286.4175,248.1594 L294.5985,248.1594 C294.5985,254.8224 296.2065,261.0834 299.4325,266.9364 C302.6725,272.7874 307.1135,277.8344 312.7735,282.0774 C318.4145,286.5214 324.7755,289.8514 331.8515,292.0694 C338.9085,294.3014 346.0735,295.6134 353.3365,295.9984 C354.3555,296.2214 355.4125,296.3134 356.5305,296.3134 L359.7065,296.3134 C361.9415,296.3134 364.2125,296.2214 366.5295,295.9984 C368.8325,295.8134 371.0195,295.6134 373.0335,295.4114 C374.8505,295.1974 376.8725,294.7924 379.1065,294.1974 C381.3265,293.5724 383.5415,292.8794 385.7575,292.0694 C390.3985,290.2674 394.7055,287.8394 398.6405,284.7954 C402.5715,281.7804 404.5395,277.9384 404.5395,273.2934 C404.5395,268.8564 402.2125,264.8594 397.5555,261.3224 C392.9145,257.8084 387.7645,254.7274 382.1265,252.0984 C380.1095,251.2854 378.1295,250.4844 376.2175,249.6724 C374.2915,248.8604 372.5235,248.0564 370.9155,247.2524 C369.2995,246.6424 367.6735,245.9794 366.0625,245.2724 C364.4365,244.5874 362.8355,243.9184 361.2275,243.3064 C359.6075,242.6974 357.9855,242.0494 356.3775,241.3574 C354.7575,240.6414 353.1415,239.9794 351.5355,239.3764 C348.5015,238.1624 345.3115,236.9054 341.9905,235.5954 C338.6545,234.2694 335.3675,232.8244 332.1615,231.1944 C321.2415,226.3494 311.2625,220.1394 302.1665,212.5754 C293.0795,204.9924 288.5315,195.2524 288.5315,183.3494 C288.5315,176.2694 290.4545,169.9154 294.2835,164.2534 C298.1245,158.6114 303.3785,153.8714 310.0575,150.0334 C316.6935,146.0034 324.5745,142.9024 333.6445,140.7884 C342.7425,138.6744 352.4345,137.6164 362.7325,137.6164 C364.9495,137.6164 367.2135,137.7094 369.5535,137.9104 C371.8595,138.1124 374.2485,138.4204 376.6595,138.8294 C382.7195,140.0364 388.7455,142.0464 394.7055,144.8864 C400.6345,147.6964 405.7465,151.2374 409.9895,155.4794 C412.0165,157.5044 413.4625,159.6724 414.3775,162.0054 C415.2715,164.3204 415.7385,166.7954 415.7385,169.4204 C415.7385,174.2504 413.9605,178.6994 410.4475,182.7454 C406.9085,186.7774 402.2125,188.7904 396.3635,188.7904 C390.2905,188.7904 385.5565,186.7324 382.1265,182.5734 C378.6765,178.4604 376.9635,173.8574 376.9635,168.7994 C376.9635,165.3694 377.9295,162.0344 379.8585,158.8074 C381.7635,155.5834 384.7185,153.1614 388.7705,151.5454 C384.1315,149.5284 379.4415,148.1204 374.6955,147.3024 C369.9545,146.5024 365.1655,146.0844 360.3085,146.0844 C357.6785,146.0844 355.1185,146.2034 352.5775,146.3874 C350.0745,146.6064 347.4805,146.8884 344.8745,147.3024 C343.2455,147.5184 341.5435,147.9044 339.7195,148.5154 C337.8995,149.1194 335.9725,149.7174 333.9655,150.3404 C329.7365,152.1524 325.7915,154.4754 322.1515,157.2964 C318.5255,160.1214 316.6935,163.6654 316.6935,167.9044 C316.6935,170.5294 317.6435,172.9334 319.5825,175.1584 C321.4875,177.3854 323.6655,179.1984 326.0935,180.6314 C326.7145,181.0194 327.3035,181.4204 327.8975,181.8294 C328.5075,182.2354 329.1155,182.5444 329.7365,182.7454 C335.1815,185.1654 340.5755,187.5334 345.9255,189.8474 C351.2665,192.1844 356.6575,194.4414 362.1275,196.6744 C367.5895,198.8854 373.0335,201.1674 378.4765,203.4754 C383.9225,205.8014 389.3925,208.1754 394.8195,210.6114 C395.0415,210.6114 395.1875,210.6544 395.2915,210.7594 C395.4015,210.8634 395.5285,210.8944 395.7545,210.8944 C404.8325,214.9444 413.1655,220.8984 420.7385,228.7744 C428.3015,236.6514 432.0925,245.9264 432.0925,256.6314 C432.0925,269.9564 425.2685,281.2804 411.6455,290.5514" id="Fill-5" fill="#FFFFFF"></path>
                <path d="M859.6314,260.6461 C857.1904,269.2721 852.1184,277.5741 844.4204,285.5691 C838.5624,291.4141 832.4204,295.7971 825.9814,298.7241 C819.5044,301.6431 812.8804,303.4151 806.1184,304.0411 C804.8694,304.3371 803.7374,304.4921 802.6574,304.4921 L799.1804,304.4921 C782.2674,304.4921 767.1254,298.5681 753.7244,286.7231 C740.3564,274.8861 733.6554,259.2591 733.6554,239.8741 L733.6554,204.1201 L733.6554,168.3441 L733.6554,132.5801 L733.6554,96.7981 C733.6554,95.2651 733.5874,93.8131 733.4244,92.4171 C733.2754,91.0321 732.8734,89.5881 732.2834,88.0471 C731.0414,82.8171 728.6514,77.9591 725.1214,73.5121 C721.5874,69.0411 716.8754,66.8151 711.0514,66.8151 C703.6534,66.8151 697.6534,70.1131 693.0294,76.7351 C688.4294,83.3531 684.8924,90.6711 682.4384,98.6481 C681.2164,103.2751 680.2634,107.7271 679.6464,112.0411 C679.0324,116.3481 678.7294,120.0511 678.7294,123.1191 L678.7294,213.8121 L678.7294,304.4921 L607.6484,304.4921 L607.6484,63.1151 C593.2064,63.1151 580.3724,68.5131 569.1304,79.2711 C557.8834,90.0431 552.2994,102.0361 552.2994,115.2691 L552.2994,209.6431 L552.2994,304.4921 L481.1994,304.4921 L481.1994,63.1151 L466.4514,63.1151 L466.4514,50.1961 L468.9674,50.1961 L471.5154,50.1961 C482.8814,50.1961 493.6694,50.9621 503.8234,52.4931 C513.9814,54.0511 523.8224,59.5831 533.3534,69.1311 C535.8254,71.8891 538.1314,74.7371 540.2834,77.6551 C542.4204,80.5841 544.2884,83.7411 545.8154,87.1241 C551.9784,74.8071 560.8954,65.5831 572.6004,59.4201 C584.2724,53.2741 596.6094,50.3581 609.5174,50.6651 C622.4334,50.6651 634.7314,53.6501 646.4494,59.6581 C658.1214,65.6501 666.8844,74.8071 672.7424,87.1241 C675.1994,80.9801 678.4324,75.3431 682.4384,70.2731 C686.4344,65.1861 691.3564,60.9681 697.1984,57.5681 L697.1984,57.1301 C702.4324,54.6661 707.7464,52.9021 713.1234,51.8041 C718.5034,50.7461 724.1104,50.1961 729.9704,50.1961 C739.8194,50.1961 749.3464,52.0461 758.5784,55.7301 C767.8164,59.4201 775.9694,64.8131 783.0274,71.8891 C790.1214,78.6441 795.4884,86.6431 799.1804,95.8821 C802.8894,105.1211 804.7504,115.1201 804.7504,125.8841 L804.7504,167.4241 L804.7504,208.5031 L804.7504,250.0371 L804.7504,291.5761 C817.9554,290.0281 828.9434,284.3331 837.7294,274.4851 C846.4984,264.6501 850.8924,253.1031 850.8924,239.8741 L850.8924,238.0291 L850.8924,235.7281 L850.8924,233.8821 L850.8924,232.0351 L863.3374,232.0351 C863.3374,242.4961 862.1184,252.0311 859.6314,260.6461" id="Fill-7" fill="#FFFFFF"></path>
                <path d="M888.3677,118.8263 C883.5137,123.6703 877.6537,126.0933 870.7827,126.0933 C863.9317,126.0933 858.1267,123.6703 853.3787,118.8263 C848.6277,113.9763 846.2527,108.1293 846.2527,101.2723 C846.2527,94.2153 848.6277,88.2483 853.3787,83.3983 C858.1267,78.5483 863.9317,76.1283 870.7827,76.1283 C877.6537,76.1283 883.5137,78.5483 888.3677,83.3983 C893.1897,88.2483 895.6177,94.2153 895.6177,101.2723 C895.6177,108.1293 893.1897,113.9763 888.3677,118.8263 M919.4037,292.0693 C911.0277,300.3633 900.9757,304.4923 889.2667,304.4923 C877.5647,304.4923 867.5647,300.3633 859.2877,292.0693 C850.9957,283.7973 846.8707,273.7983 846.8707,262.0883 L846.8707,203.9363 L846.8707,146.0843 L835.6447,146.0843 L835.6447,137.6173 L843.5287,137.6173 L850.8037,137.6173 C862.6977,137.6173 872.8057,141.7453 881.0867,150.0343 C889.3637,158.3013 893.5027,168.4033 893.5027,180.3073 L893.5027,238.0143 L893.5027,295.9983 C901.9977,294.9933 909.0987,291.2643 914.8537,284.7953 C920.6017,278.3403 923.4967,270.7623 923.4967,262.0883 L923.4967,260.8613 L923.4967,259.3573 L923.4967,258.1513 L923.4967,256.9453 L931.9627,256.9453 L931.9627,258.1513 L931.9627,259.3573 L931.9627,260.8613 L931.9627,262.0883 C931.9627,273.7983 927.7937,283.7973 919.4037,292.0693" id="Fill-9" fill="#FFFFFF"></path>
                <g id="Group-13" transform="translate(910.000000, 75.637000)">
                    <mask id="mask-2" fill="white">
                        <use xlink:href="#path-1"></use>
                    </mask>
                    <g id="Clip-12"></g>
                    <path d="M84.5396,216.432 C76.1266,224.726 66.0796,228.855 54.3906,228.855 C42.6566,228.855 32.6756,224.726 24.3896,216.432 C16.1116,208.161 11.9726,198.161 11.9726,186.452 L11.9726,97.557 L11.9726,8.968 L0.7746,8.968 L0.7746,0.491 L8.6376,0.491 L15.9106,0.491 C27.8276,0.491 37.9216,4.623 46.2096,12.909 C54.4776,21.194 58.6206,31.189 58.6206,42.9 L58.6206,131.787 L58.6206,220.362 C67.1046,219.357 74.2066,215.627 79.9606,209.159 C85.7306,202.703 88.6046,195.125 88.6046,186.452 L88.6046,185.224 L88.6046,183.72 L88.6046,182.514 L88.6046,181.308 L97.0926,181.308 L97.0926,182.514 L97.0926,183.72 L97.0926,185.224 L97.0926,186.452 C97.0926,198.161 92.8996,208.161 84.5396,216.432" id="Fill-11" fill="#FFFFFF" mask="url(#mask-2)"></path>
                </g>
                <path d="M179.8062,400.6451 C180.6702,400.6451 181.7552,400.5791 183.0482,400.4591 C184.3362,400.3331 185.7162,400.0501 187.1842,399.5891 C188.6432,399.1291 190.0732,398.4581 191.5112,397.5941 C192.9312,396.7151 194.2242,395.5241 195.3482,394.0141 C196.4882,392.5111 197.4182,390.6241 198.1452,388.3721 C198.8742,386.1081 199.2272,383.3901 199.2272,380.1811 C199.2272,377.0691 198.8912,374.2931 198.2212,371.8421 C197.5532,369.3861 196.4422,367.2871 194.8972,365.5681 C193.3682,363.8471 191.3842,362.5391 188.9582,361.6301 C186.5292,360.7501 183.5342,360.2981 179.9722,360.2981 L167.0252,360.2981 L167.0252,400.6451 L179.8062,400.6451 Z M179.1612,354.4601 C188.0692,354.4601 194.9232,356.5071 199.7222,360.5731 C204.5242,364.6611 206.9322,370.8741 206.9322,379.2211 C206.9322,383.5891 206.3732,387.4701 205.3092,390.8571 C204.2292,394.2231 202.5572,397.0731 200.2942,399.3731 C198.0202,401.6831 195.1312,403.4371 191.6332,404.6441 C188.1242,405.8671 183.9732,406.4751 179.1612,406.4751 L159.3342,406.4751 L159.3342,354.4601 L179.1612,354.4601 Z" id="Fill-14" fill="#FFFFFF"></path>
                <mask id="mask-4" fill="white">
                    <use xlink:href="#path-3"></use>
                </mask>
                <g id="Clip-17"></g>
                <polygon id="Fill-16" fill="#FFFFFF" mask="url(#mask-4)" points="224.727 406.475 232.407 406.475 232.407 354.46 224.727 354.46"></polygon>
                <path d="M282.396,361.5641 C279.833,359.8941 276.558,359.0531 272.563,359.0531 C270.943,359.0531 269.35,359.2041 267.787,359.5011 C266.217,359.7831 264.828,360.2591 263.628,360.9521 C262.401,361.6301 261.434,362.5391 260.704,363.6771 C259.982,364.8151 259.607,366.2471 259.607,367.9361 C259.607,369.5361 260.127,370.8551 261.184,371.8421 C262.251,372.8341 263.644,373.6471 265.404,374.2801 C267.15,374.9041 269.141,375.4401 271.344,375.8411 C273.56,376.2591 275.809,376.7051 278.102,377.1801 C280.399,377.6801 282.658,378.2461 284.86,378.9011 C287.073,379.5561 289.052,380.4511 290.805,381.5501 C292.563,382.6841 293.963,384.0991 295.021,385.7961 C296.064,387.4921 296.607,389.6221 296.607,392.1981 C296.607,394.9751 295.917,397.3191 294.54,399.2991 C293.157,401.2651 291.395,402.8741 289.235,404.0921 C287.073,405.3451 284.652,406.2521 281.994,406.8041 C279.319,407.3551 276.656,407.6371 274.022,407.6371 C270.791,407.6371 267.727,407.2711 264.828,406.5431 C261.947,405.8131 259.403,404.7061 257.224,403.2301 C255.041,401.7551 253.312,399.8591 252.046,397.5511 C250.781,395.2411 250.148,392.5111 250.148,389.3521 L257.424,389.3521 C257.424,391.5431 257.894,393.4171 258.854,394.9951 C259.784,396.5841 261.032,397.8771 262.564,398.9131 C264.099,399.9161 265.893,400.6681 267.939,401.1611 C269.998,401.6361 272.101,401.8751 274.261,401.8751 C275.988,401.8751 277.734,401.7401 279.481,401.4351 C281.24,401.1611 282.802,400.6451 284.22,399.9551 C285.612,399.2491 286.752,398.2941 287.609,397.0731 C288.483,395.8591 288.907,394.3201 288.907,392.4211 C288.907,390.6211 288.382,389.1601 287.325,388.0431 C286.283,386.9271 284.875,386.0191 283.127,385.3101 C281.375,384.6201 279.393,384.0381 277.169,383.5891 C274.96,383.1731 272.711,382.7191 270.414,382.2591 C268.13,381.7961 265.882,381.2681 263.659,380.6431 C261.441,380.0481 259.457,379.2431 257.706,378.2461 C255.959,377.2491 254.545,375.9611 253.504,374.3831 C252.447,372.8181 251.926,370.8321 251.926,368.4491 C251.926,365.8221 252.513,363.5501 253.697,361.6301 C254.889,359.7241 256.464,358.1461 258.431,356.9091 C260.42,355.6671 262.655,354.7461 265.155,354.1321 C267.668,353.5381 270.254,353.2251 272.889,353.2251 C275.854,353.2251 278.605,353.5381 281.146,354.1701 C283.673,354.8021 285.897,355.8011 287.828,357.1631 C289.733,358.5171 291.245,360.2301 292.357,362.2931 C293.468,364.3631 294.069,366.8131 294.164,369.6851 L286.885,369.6851 C286.453,365.9491 284.957,363.2381 282.396,361.5641" id="Fill-18" fill="#FFFFFF" mask="url(#mask-4)"></path>
                <polygon id="Fill-19" fill="#FFFFFF" mask="url(#mask-4)" points="307.8423 360.2985 307.8423 354.4605 354.0583 354.4605 354.0583 360.2985 334.7953 360.2985 334.7953 406.4755 327.1153 406.4755 327.1153 360.2985"></polygon>
                <path d="M397.355,378.068 C398.979,377.822 400.394,377.346 401.61,376.645 C402.814,375.938 403.79,374.993 404.512,373.809 C405.243,372.617 405.614,371.07 405.614,369.177 C405.614,366.559 404.807,364.415 403.188,362.762 C401.57,361.108 398.948,360.298 395.335,360.298 L376.228,360.298 L376.228,378.425 L392.259,378.425 C394.05,378.425 395.737,378.322 397.355,378.068 Z M395.737,354.461 C401.242,354.461 405.543,355.667 408.648,358.101 C411.758,360.536 413.305,363.863 413.305,368.093 C413.305,371.248 412.51,374.01 410.914,376.392 C409.326,378.768 406.773,380.389 403.27,381.268 L403.27,381.419 C404.941,381.701 406.311,382.198 407.36,382.862 C408.409,383.562 409.245,384.366 409.862,385.31 C410.48,386.262 410.942,387.312 411.245,388.49 C411.537,389.637 411.772,390.873 411.925,392.123 C412.04,393.395 412.113,394.67 412.174,395.986 C412.233,397.297 412.367,398.586 412.576,399.843 C412.779,401.1 413.105,402.299 413.505,403.453 C413.915,404.587 414.519,405.597 415.322,406.475 L406.748,406.475 C406.212,405.94 405.848,405.211 405.663,404.286 C405.477,403.365 405.342,402.338 405.287,401.189 C405.236,400.05 405.195,398.817 405.134,397.505 C405.076,396.203 404.916,394.922 404.647,393.665 C404.423,392.392 404.156,391.184 403.829,390.038 C403.508,388.908 402.995,387.911 402.294,387.061 C401.595,386.214 400.686,385.527 399.545,385.021 C398.412,384.516 396.9,384.255 395.008,384.255 L376.228,384.255 L376.228,406.475 L368.55,406.475 L368.55,354.461 L395.737,354.461 Z" id="Fill-20" fill="#FFFFFF" mask="url(#mask-4)"></path>
                <polygon id="Fill-21" fill="#FFFFFF" mask="url(#mask-4)" points="432.408 406.475 440.088 406.475 440.088 354.46 432.408 354.46"></polygon>
                <path d="M488.0899,400.6451 C491.4859,400.6451 494.1389,399.8201 496.0519,398.1621 C497.9609,396.5221 498.9269,394.2381 498.9269,391.3191 C498.9269,389.6221 498.5809,388.2211 497.8789,387.1051 C497.1729,385.9731 496.2399,385.0951 495.0759,384.4381 C493.9229,383.7871 492.5819,383.3241 491.0679,383.0541 C489.5629,382.7881 488.0109,382.6531 486.3929,382.6531 L468.8189,382.6531 L468.8189,400.6451 L488.0899,400.6451 Z M484.1929,376.8251 C488.5649,376.8251 491.7179,376.1461 493.6239,374.7461 C495.5309,373.3701 496.5019,371.3021 496.5019,368.5241 C496.5019,366.6781 496.1739,365.2191 495.5309,364.1611 C494.8759,363.0821 493.9889,362.2621 492.8629,361.6751 C491.7179,361.0941 490.4119,360.7071 488.9329,360.5491 C487.4499,360.3801 485.8719,360.2981 484.1929,360.2981 L468.8189,360.2981 L468.8189,376.8251 L484.1929,376.8251 Z M482.0919,354.4601 C483.3289,354.4601 484.6809,354.4761 486.1089,354.4901 C487.5229,354.5291 488.9459,354.5951 490.3389,354.7221 C491.7559,354.8411 493.0589,355.0111 494.2709,355.2651 C495.4959,355.5081 496.5199,355.8681 497.3879,356.3601 C499.2879,357.3721 500.8819,358.7871 502.2089,360.5731 C503.5339,362.3811 504.1839,364.5921 504.1839,367.2141 C504.1839,369.9911 503.4429,372.3741 501.9599,374.3831 C500.4809,376.3921 498.3559,377.8901 495.6149,378.8731 L495.6149,379.0121 C499.1679,379.6911 501.8829,381.1491 503.7849,383.3901 C505.6729,385.6151 506.6109,388.3271 506.6109,391.5431 C506.6109,393.4321 506.2479,395.2801 505.4809,397.0731 C504.7359,398.8751 503.6009,400.4591 502.1269,401.8441 C500.6319,403.2301 498.7999,404.3541 496.6289,405.2101 C494.4389,406.0511 491.9129,406.4751 489.0419,406.4751 L461.1389,406.4751 L461.1389,354.4601 L482.0919,354.4601 Z" id="Fill-22" fill="#FFFFFF" mask="url(#mask-4)"></path>
                <path d="M564.8873,402.651 C560.9563,405.986 555.3373,407.637 548.0483,407.637 C540.6113,407.637 534.7813,406.051 530.6043,402.874 C526.4293,399.68 524.3453,394.625 524.3453,387.671 L524.3453,354.461 L532.0273,354.461 L532.0273,387.671 C532.0273,392.33 533.4043,395.875 536.1643,398.281 C538.9043,400.684 542.8733,401.875 548.0483,401.875 C552.9613,401.875 556.6993,400.684 559.2593,398.281 C561.8213,395.875 563.1083,392.33 563.1083,387.671 L563.1083,354.461 L570.7833,354.461 L570.7833,387.671 C570.7833,394.335 568.8173,399.322 564.8873,402.651" id="Fill-23" fill="#FFFFFF" mask="url(#mask-4)"></path>
                <polygon id="Fill-24" fill="#FFFFFF" mask="url(#mask-4)" points="591.509 406.475 599.192 406.475 599.192 354.46 591.509 354.46"></polygon>
                <path d="M640.7037,400.6451 C641.5877,400.6451 642.6587,400.5791 643.9557,400.4591 C645.2597,400.3331 646.6277,400.0501 648.0867,399.5891 C649.5467,399.1291 650.9747,398.4581 652.4137,397.5941 C653.8417,396.7151 655.1217,395.5241 656.2617,394.0141 C657.3917,392.5111 658.3307,390.6241 659.0457,388.3721 C659.7747,386.1081 660.1467,383.3901 660.1467,380.1811 C660.1467,377.0691 659.8067,374.2931 659.1277,371.8421 C658.4657,369.3861 657.3487,367.2871 655.8077,365.5681 C654.2727,363.8471 652.2867,362.5391 649.8597,361.6301 C647.4327,360.7501 644.4397,360.2981 640.8817,360.2981 L627.9337,360.2981 L627.9337,400.6451 L640.7037,400.6451 Z M640.0757,354.4601 C648.9647,354.4601 655.8217,356.5071 660.6237,360.5731 C665.4257,364.6611 667.8287,370.8741 667.8287,379.2211 C667.8287,383.5891 667.2857,387.4701 666.2077,390.8571 C665.1367,394.2231 663.4507,397.0731 661.1897,399.3731 C658.9267,401.6831 656.0387,403.4371 652.5327,404.6441 C649.0267,405.8671 644.8717,406.4751 640.0757,406.4751 L620.2357,406.4751 L620.2357,354.4601 L640.0757,354.4601 Z" id="Fill-25" fill="#FFFFFF" mask="url(#mask-4)"></path>
                <path d="M690.8931,388.2291 C691.6521,390.7831 692.8291,393.0751 694.4661,395.1081 C696.0831,397.1471 698.1431,398.7861 700.6841,400.0281 C703.2221,401.2651 706.2441,401.8751 709.7451,401.8751 C713.2561,401.8751 716.2781,401.2651 718.8241,400.0281 C721.3571,398.7861 723.4321,397.1471 725.0481,395.1081 C726.6641,393.0751 727.8481,390.7831 728.6071,388.2291 C729.3831,385.6751 729.7381,383.0921 729.7381,380.4791 C729.7381,377.8351 729.3831,375.2601 728.6071,372.7071 C727.8481,370.1611 726.6641,367.8691 725.0481,365.8221 C723.4321,363.7891 721.3571,362.1501 718.8241,360.9011 C716.2781,359.6651 713.2561,359.0531 709.7451,359.0531 C706.2441,359.0531 703.2221,359.6651 700.6841,360.9011 C698.1431,362.1501 696.0831,363.7891 694.4661,365.8221 C692.8291,367.8691 691.6521,370.1611 690.8931,372.7071 C690.1401,375.2601 689.7781,377.8351 689.7781,380.4791 C689.7781,383.0921 690.1401,385.6751 690.8931,388.2291 M683.8061,370.2351 C684.9841,366.9451 686.7161,364.0561 689.0331,361.5411 C691.3561,358.9951 694.2441,356.9781 697.6831,355.4811 C701.1441,353.9691 705.1701,353.2251 709.7451,353.2251 C714.3301,353.2251 718.3721,353.9691 721.8121,355.4811 C725.2721,356.9781 728.1461,358.9951 730.4671,361.5411 C732.7921,364.0561 734.5321,366.9451 735.6931,370.2351 C736.8561,373.5121 737.4211,376.9141 737.4211,380.4791 C737.4211,384.0081 736.8561,387.4191 735.6931,390.6951 C734.5321,393.9761 732.7921,396.8881 730.4671,399.4031 C728.1461,401.9341 725.2721,403.9291 721.8121,405.4191 C718.3721,406.9081 714.3301,407.6371 709.7451,407.6371 C705.1701,407.6371 701.1441,406.9081 697.6831,405.4191 C694.2441,403.9291 691.3561,401.9341 689.0331,399.4031 C686.7161,396.8881 684.9841,393.9761 683.8061,390.6951 C682.6451,387.4191 682.0801,384.0081 682.0801,380.4791 C682.0801,376.9141 682.6451,373.5121 683.8061,370.2351" id="Fill-26" fill="#FFFFFF" mask="url(#mask-4)"></path>
                <path d="M783.7105,378.068 C785.3505,377.822 786.7645,377.346 787.9685,376.645 C789.1835,375.938 790.1585,374.993 790.8875,373.809 C791.6165,372.617 791.9895,371.07 791.9895,369.177 C791.9895,366.559 791.1645,364.415 789.5495,362.762 C787.9405,361.108 785.3185,360.298 781.7015,360.298 L762.5995,360.298 L762.5995,378.425 L778.6265,378.425 C780.4055,378.425 782.1035,378.322 783.7105,378.068 Z M782.1035,354.461 C787.6205,354.461 791.9065,355.667 795.0115,358.101 C798.1155,360.536 799.6745,363.863 799.6745,368.093 C799.6745,371.248 798.8825,374.01 797.2745,376.392 C795.6825,378.768 793.1365,380.389 789.6385,381.268 L789.6385,381.419 C791.2965,381.701 792.6745,382.198 793.7185,382.862 C794.7745,383.562 795.6075,384.366 796.2175,385.31 C796.8515,386.262 797.3205,387.312 797.6025,388.49 C797.9065,389.637 798.1235,390.873 798.2955,392.123 C798.3935,393.395 798.4815,394.67 798.5275,395.986 C798.5855,397.297 798.7205,398.586 798.9445,399.843 C799.1515,401.1 799.4735,402.299 799.8735,403.453 C800.2745,404.587 800.8805,405.597 801.6825,406.475 L793.1205,406.475 C792.5845,405.94 792.2135,405.211 792.0185,404.286 C791.8325,403.365 791.6985,402.338 791.6615,401.189 C791.6015,400.05 791.5585,398.817 791.4895,397.505 C791.4315,396.203 791.2885,394.922 791.0225,393.665 C790.7915,392.392 790.5245,391.184 790.1965,390.038 C789.8685,388.908 789.3565,387.911 788.6625,387.061 C787.9645,386.214 787.0475,385.527 785.9155,385.021 C784.7835,384.516 783.2625,384.255 781.3895,384.255 L762.5995,384.255 L762.5995,406.475 L754.9155,406.475 L754.9155,354.461 L782.1035,354.461 Z" id="Fill-27" fill="#FFFFFF" mask="url(#mask-4)"></path>
                <path d="M847.9732,384.984 L838.3532,360.722 L838.1912,360.722 L828.3952,384.984 L847.9732,384.984 Z M842.6352,354.461 L865.2282,406.475 L856.7192,406.475 L850.4132,390.814 L825.9812,390.814 L819.4892,406.475 L811.6442,406.475 L834.1492,354.461 L842.6352,354.461 Z" id="Fill-28" fill="#FFFFFF" mask="url(#mask-4)"></path>
            </g>
        </g>
    </g>
</svg>