<?xml version="1.0" encoding="UTF-8"?>
<svg width="378px" height="378px" viewBox="0 0 378 378" version="1.1" xmlns="http://www.w3.org/2000/svg" xmlns:xlink="http://www.w3.org/1999/xlink">
    <!-- Generator: Sketch 52.6 (67491) - http://www.bohemiancoding.com/sketch -->
    <title>whatsapp</title>
    <desc>Created with Sketch.</desc>
    <defs>
        <path d="M0.285,149.299 C0.285,176.988 7.853,202.906 21.022,225.111 L9.74,288.57 L75.894,278.908 C97.521,291.157 122.512,298.155 149.141,298.155 C231.352,298.155 297.997,231.51 297.997,149.299 C297.997,67.088 231.352,0.443 149.141,0.443 C66.93,0.443 0.285,67.088 0.285,149.299" id="path-1"></path>
        <linearGradient x1="69.2566122%" y1="2.00277016%" x2="25.2636832%" y2="111.655891%" id="linearGradient-3">
            <stop stop-color="#4BC159" offset="0%"></stop>
            <stop stop-color="#368C41" offset="100%"></stop>
        </linearGradient>
    </defs>
    <g id="Page-1" stroke="none" stroke-width="1" fill="none" fill-rule="evenodd">
        <g id="as" transform="translate(-43.000000, -37.000000)">
            <g id="whatsapp" transform="translate(44.000000, 37.000000)">
                <g id="Group-250" transform="translate(0.000000, 0.765000)" fill="#FFFFFF" stroke="#000000">
                    <path d="M188.141,0.2698 C84.295,0.2698 0.112,84.4538 0.112,188.2988 C0.112,223.2748 0.848,239.2518 17.482,267.3018 L0.112,376.3288 L102.602,355.7738 C129.921,371.2458 154.505,376.3288 188.141,376.3288 C291.987,376.3288 376.17,292.1448 376.17,188.2988 C376.17,84.4538 291.987,0.2698 188.141,0.2698" id="Fill-248"></path>
                </g>
                <g id="Group-253" transform="translate(39.000000, 39.765000)">
                    <mask id="mask-2" fill="white">
                        <use xlink:href="#path-1"></use>
                    </mask>
                    <g id="Clip-252"></g>
                    <path d="M0.285,149.299 C0.285,176.988 7.853,202.906 21.022,225.111 L9.74,288.57 L75.894,278.908 C97.521,291.157 122.512,298.155 149.141,298.155 C231.352,298.155 297.997,231.51 297.997,149.299 C297.997,67.088 231.352,0.443 149.141,0.443 C66.93,0.443 0.285,67.088 0.285,149.299" id="Fill-251" fill="url(#linearGradient-3)" mask="url(#mask-2)"></path>
                </g>
                <path d="M104.7538,256.7926 C102.2548,250.7946 100.9988,245.0636 100.9988,239.6156 C100.9988,238.3706 101.1108,237.4616 101.3358,236.8936 C101.6728,235.9836 103.8658,234.3206 107.8848,231.8736 C111.9238,229.4356 116.9428,226.6306 122.9508,223.4476 L131.9668,218.5226 C132.5368,218.1756 133.6178,217.4396 135.1998,216.3096 C136.7898,215.1656 138.2078,214.3196 139.4538,213.7476 C140.7068,213.1886 141.8998,212.9016 143.0338,212.9016 C145.0828,212.9016 147.7468,214.7476 151.0288,218.4296 C154.3238,222.1136 157.5568,225.8346 160.7298,229.5786 C163.9118,233.3226 166.4108,235.1976 168.2148,235.1976 C169.0228,235.1976 169.9518,234.9946 171.0328,234.5976 C172.1138,234.1976 172.9908,233.8326 173.6728,233.4956 C174.3468,233.1476 175.3158,232.6176 176.5608,231.8846 C177.8138,231.1406 178.6098,230.6596 178.9468,230.4356 C190.1878,224.1916 199.8578,217.0116 207.9648,208.9036 C216.0858,200.7856 223.2558,191.1136 229.4968,179.8856 C229.7208,179.5386 230.2118,178.7526 230.9458,177.4996 C231.6798,176.2536 232.2198,175.2846 232.5568,174.6006 C232.9048,173.9276 233.2728,173.0496 233.6698,171.9686 C234.0658,170.8876 234.2588,169.9506 234.2588,169.1536 C234.2588,167.6866 233.0968,165.7776 230.7738,163.4536 C228.4468,161.1376 225.8958,158.9446 223.1128,156.9046 C220.3368,154.8656 217.7888,152.6206 215.4518,150.1836 C213.1278,147.7456 211.9618,145.6746 211.9618,143.9716 C211.9618,142.8286 212.2508,141.6456 212.8218,140.3926 C213.3798,139.1466 214.2398,137.7286 215.3708,136.1386 C216.5038,134.5456 217.2478,133.4756 217.5848,132.9036 C217.9208,132.2316 218.7778,130.6106 220.1328,128.0596 C221.5018,125.5006 222.9198,122.9186 224.3868,120.3176 C225.8678,117.7066 227.3658,115.0146 228.9068,112.2306 C230.4368,109.4446 231.8548,107.1496 233.1608,105.3346 C234.4658,103.5206 235.3928,102.4996 235.9638,102.2746 C236.5368,102.0496 237.4428,101.9276 238.6878,101.9276 C244.1348,101.9276 249.8668,103.1836 255.8748,105.6816 C261.0968,108.0586 265.6348,113.4236 269.4918,121.7556 C273.3458,130.0986 275.2838,137.5036 275.2838,143.9716 C275.2838,145.7866 275.1418,147.7136 274.8548,149.7556 C274.5708,151.7946 274.2858,153.5286 274.0088,154.9466 C273.7248,156.3646 273.2128,158.2316 272.4678,160.5656 C271.7348,162.8926 271.1628,164.5636 270.7768,165.5846 C270.3798,166.6056 269.6648,168.4726 268.6428,171.1956 C267.6248,173.9196 267.0038,175.6216 266.7788,176.3056 C259.9628,194.9106 247.6828,213.0866 229.9248,230.8536 C212.1698,248.6016 193.9828,260.8816 175.3778,267.6966 C174.7038,267.9216 173.0018,268.5426 170.2778,269.5706 C167.5548,270.5816 165.6778,271.2946 164.6568,271.6936 C163.6378,272.0916 161.9638,272.6526 159.6378,273.3966 C157.3138,274.1306 155.4368,274.6426 154.0188,274.9276 C152.6008,275.2116 150.8778,275.4876 148.8378,275.7726 C146.7958,276.0606 144.8578,276.2006 143.0438,276.2006 C136.5758,276.2006 129.1708,274.2736 120.8388,270.4096 C112.4958,266.5526 107.1408,262.0146 104.7538,256.7926" id="Fill-254" fill="#FFFFFF"></path>
            </g>
        </g>
    </g>
</svg>